<svg
    version="1.0"
    xmlns="http://www.w3.org/2000/svg"
    width="450.000000pt"
    height="450.000000pt"
    viewBox="0 0 450.000000 450.000000"
    preserveAspectRatio="xMidYMid meet"
    class="logo"
>
    <g
        transform="translate(0.000000,450.000000) scale(0.100000,-0.100000)"
        fill="#0425ca"
        stroke="none"
    >
        <path
            d="M2116 4090 c-396 -30 -724 -160 -1023 -406 -99 -82 -247 -233 -317 -326 -161 -212 -280 -472 -330 -728 -91 -456 -15 -960 197 -1305 61 -100 84 -125 115 -125 14 0 39 11 57 24 l31 24 90 -126 c50 -69 95 -127 101 -129 6 -2 14 6 18 18 6 18 55 105 83 146 6 10 21 8 62 -8 30 -12 82 -29 115 -38 l60 -17 -3 -49 c-8 -114 107 -186 178 -110 12 12 24 40 27 62 l5 39 -63 -2 c-59 0 -64 -2 -67 -24 -4 -21 -2 -22 42 -16 37 6 46 4 46 -8 0 -18 -38 -46 -63 -46 -10 0 -29 11 -42 25 -51 50 -20 155 46 155 18 0 33 -7 41 -20 13 -20 38 -26 51 -14 12 13 -34 63 -68 74 -37 12 -58 6 -89 -29 -21 -23 -36 -19 -36 8 0 34 -101 222 -201 373 -55 84 -103 155 -105 157 -2 2 -28 -9 -58 -25 -55 -28 -55 -29 -70 -9 -20 28 -72 183 -97 290 -33 142 -37 404 -10 561 66 381 261 690 587 929 259 190 538 274 874 262 167 -6 242 -19 390 -68 217 -72 386 -181 566 -365 216 -221 335 -459 389 -774 19 -109 19 -349 0 -464 -23 -139 -90 -356 -111 -356 -3 0 -22 11 -42 25 -20 14 -44 25 -53 25 -10 0 -34 -28 -59 -67 -23 -38 -66 -104 -97 -148 -52 -77 -165 -296 -176 -342 -3 -13 -1 -23 3 -23 5 0 61 18 125 41 75 26 120 38 127 31 5 -5 31 -46 57 -90 l47 -80 90 120 c49 67 92 126 96 131 4 6 19 -1 38 -16 56 -47 80 -36 147 70 85 134 149 299 191 493 26 120 27 137 27 415 0 264 -2 300 -23 405 -56 275 -150 481 -328 720 -212 286 -562 542 -881 644 -229 73 -477 103 -707 86z m418 -70 c43 -6 148 -31 233 -55 133 -38 173 -55 286 -119 169 -95 314 -203 440 -329 l100 -99 -29 -23 c-26 -21 -30 -22 -39 -9 -5 9 -18 27 -28 40 -38 49 -123 19 -153 -53 -17 -39 -9 -62 36 -104 15 -14 29 -32 32 -39 5 -15 58 25 156 118 50 47 52 48 52 27 0 -8 -4 -15 -10 -15 -13 0 -13 -23 1 -37 9 -9 16 -9 30 0 22 14 25 10 103 -114 180 -286 264 -571 270 -913 3 -144 -8 -353 -18 -363 -2 -2 -51 -4 -110 -5 -97 0 -106 -2 -106 -19 0 -21 -2 -21 124 -19 88 1 89 1 82 -22 -4 -13 -11 -44 -16 -70 -5 -26 -13 -55 -18 -65 -6 -10 -20 -52 -32 -93 -22 -76 -94 -229 -144 -308 -19 -30 -31 -41 -39 -34 -7 5 -58 45 -115 90 -56 44 -108 82 -115 85 -9 3 -8 9 4 23 48 58 124 240 160 384 22 88 24 114 24 350 0 228 -2 265 -22 350 -30 126 -35 142 -72 229 -30 71 -34 98 -9 73 7 -7 19 -12 27 -12 12 0 181 73 200 87 3 2 -5 14 -17 26 -12 13 -19 26 -16 30 11 11 -30 66 -58 78 -57 23 -126 -21 -135 -88 -5 -36 -2 -43 21 -58 18 -12 24 -21 17 -28 -18 -18 -61 19 -61 52 0 16 -7 34 -16 41 -13 11 -16 10 -21 -8 -3 -12 -8 -22 -12 -22 -3 0 -22 28 -41 62 -90 157 -313 375 -495 482 -142 84 -318 155 -428 171 l-44 7 22 71 c18 55 20 77 13 99 -13 36 -42 52 -80 44 -26 -5 -29 -3 -23 12 4 9 10 27 12 40 5 18 1 22 -20 22 -23 0 -26 -5 -32 -47 -4 -27 -13 -76 -21 -111 -18 -82 -18 -92 5 -92 14 0 21 13 31 60 15 71 30 88 65 72 30 -14 31 -34 9 -104 -14 -42 -15 -51 -3 -60 10 -7 9 -8 -6 -3 -11 4 -110 10 -219 13 -160 4 -196 7 -183 17 14 10 17 30 17 114 0 94 -1 101 -20 101 -11 0 -20 -4 -20 -9 0 -6 -12 -4 -26 4 -17 9 -35 10 -55 5 -40 -12 -45 -16 -58 -49 -18 -41 1 -104 38 -130 35 -25 58 -26 83 -4 26 23 34 9 13 -23 -17 -27 -24 -27 -94 -8 -22 6 -23 5 -18 -18 6 -24 4 -25 -46 -31 -30 -3 -106 -26 -171 -52 -198 -80 -334 -166 -483 -308 -159 -152 -256 -286 -344 -474 -89 -190 -120 -352 -121 -619 l0 -181 -72 -17 c-117 -28 -121 -29 -115 -22 3 3 41 28 85 54 43 26 79 54 79 62 0 19 -100 46 -182 49 -7 1 -13 6 -13 11 0 6 33 10 79 10 95 0 111 5 104 31 -5 17 -11 19 -52 14 -43 -6 -107 -11 -174 -14 -26 -1 -28 -4 -25 -38 l3 -38 100 -17 c55 -9 102 -18 105 -18 3 -1 -11 -9 -30 -19 -19 -9 -61 -32 -93 -50 -55 -32 -58 -35 -51 -65 3 -17 9 -34 13 -37 3 -4 35 2 71 13 36 11 90 27 121 36 l55 17 13 -80 c7 -44 22 -109 33 -145 27 -85 111 -264 145 -309 18 -24 23 -36 14 -39 -11 -4 -129 -98 -205 -163 l-30 -26 -31 46 c-104 154 -186 357 -231 580 -24 115 -26 147 -26 358 0 137 5 257 12 290 7 32 18 88 26 124 61 293 216 581 438 816 163 171 299 277 498 387 76 42 67 47 112 -62 14 -35 33 -81 42 -102 l17 -39 41 21 c23 12 42 20 44 19 12 -7 22 3 22 24 0 30 -2 30 -42 9 -30 -15 -32 -15 -45 2 -20 27 -12 47 22 58 39 13 38 11 30 35 -6 20 -8 20 -35 6 -42 -22 -57 -19 -69 15 -10 29 -8 31 26 45 19 8 40 15 45 15 6 0 8 10 4 23 -5 21 0 25 57 41 117 33 232 57 317 66 105 11 398 5 504 -10z m-946 -109 c11 -6 10 -9 -5 -13 -23 -6 -45 1 -37 13 7 11 25 11 42 0z m464 -29 c14 -23 14 -30 2 -53 -18 -35 -41 -43 -70 -24 -27 17 -33 72 -12 93 22 22 62 14 80 -16z m1416 -488 c38 -26 27 -65 -27 -93 -20 -11 -26 -10 -47 10 -31 29 -30 34 5 70 34 34 39 34 69 13z m270 -386 c3 -32 -1 -39 -25 -51 -24 -13 -31 -13 -55 -1 -55 28 -23 97 41 92 34 -3 36 -6 39 -40z m-183 -68 c18 -34 18 -40 5 -40 -5 0 -10 9 -10 19 0 11 -4 23 -10 26 -5 3 -10 10 -10 16 0 17 9 9 25 -21z m-101 -1337 c-4 -16 -11 -36 -15 -45 -5 -9 -9 -30 -9 -47 0 -33 12 -46 138 -150 l62 -52 -38 -41 c-21 -22 -56 -69 -78 -104 -21 -35 -42 -63 -45 -64 -3 0 -14 17 -23 38 -10 20 -30 52 -46 71 -34 40 -44 39 -165 -8 -44 -17 -81 -31 -83 -31 -2 0 10 19 26 43 16 23 52 83 79 132 98 177 170 284 191 285 8 0 10 -8 6 -27z m57 -23 c-22 -50 -31 -59 -31 -32 0 30 21 72 36 72 10 0 9 -10 -5 -40z m-2364 -105 c32 -49 81 -130 107 -180 27 -49 57 -101 67 -114 11 -13 19 -27 19 -32 0 -8 -72 15 -142 45 -21 9 -50 16 -65 16 -25 -1 -32 -9 -61 -70 -18 -39 -36 -70 -40 -70 -4 0 -16 17 -27 37 -11 20 -44 65 -72 101 -29 35 -53 67 -53 72 0 5 24 25 53 46 28 22 73 58 98 82 50 46 54 62 30 142 -26 85 -13 74 86 -75z m-137 89 c12 -32 13 -54 1 -54 -8 0 -31 52 -31 71 0 19 21 7 30 -17z"
        ></path>
        <path
            d="M2119 3998 c-1 -13 0 -34 1 -48 2 -14 3 -61 4 -105 1 -70 3 -80 19 -80 16 0 18 12 21 115 1 63 1 121 -2 128 -8 22 -42 14 -43 -10z"
        ></path>
        <path
            d="M2180 3999 c0 -16 19 -29 41 -29 5 0 9 10 9 23 0 17 -6 22 -25 22 -17 0 -25 -6 -25 -16z"
        ></path>
        <path
            d="M2180 3855 c0 -87 2 -95 19 -95 17 0 19 8 20 70 0 38 3 81 7 95 5 22 3 25 -20 25 l-26 0 0 -95z"
        ></path>
        <path
            d="M2267 3932 c-10 -10 -17 -30 -17 -44 0 -25 27 -58 48 -58 16 0 23 -16 16 -34 -5 -14 -9 -13 -31 4 -32 25 -43 25 -43 1 0 -49 76 -70 104 -29 9 12 16 32 16 43 0 23 -38 65 -58 65 -7 0 -12 7 -12 15 0 19 19 19 44 0 27 -20 36 -19 36 4 0 23 -36 51 -66 51 -11 0 -28 -8 -37 -18z"
        ></path>
        <path
            d="M1787 3913 c-4 -4 -20 -7 -35 -8 -37 0 -39 -22 -11 -116 23 -77 31 -87 56 -71 10 6 8 22 -8 70 -23 69 -17 92 26 92 26 0 40 -27 50 -94 6 -40 10 -46 31 -46 13 0 24 1 24 3 -1 1 -11 40 -23 87 l-22 85 -40 3 c-23 2 -44 0 -48 -5z"
        ></path>
        <path
            d="M2853 3903 c-3 -10 -12 -34 -20 -53 -8 -19 -23 -57 -33 -85 -10 -27 -21 -57 -25 -66 -5 -12 4 -20 35 -33 68 -27 97 -22 119 22 13 25 16 43 10 53 -6 12 -1 23 16 39 29 27 32 67 8 87 -20 15 -89 53 -98 53 -3 0 -8 -8 -12 -17z m71 -58 c20 -21 10 -45 -19 -45 -29 0 -38 13 -30 40 8 24 28 26 49 5z m-34 -93 c19 -16 21 -22 11 -40 -12 -22 -27 -27 -55 -16 -19 7 -21 45 -4 62 16 16 22 15 48 -6z"
        ></path>
        <path
            d="M2985 3727 c-53 -53 -48 -124 12 -155 34 -18 63 -14 99 13 79 60 57 156 -39 172 -32 5 -41 1 -72 -30z m103 -30 c18 -14 15 -41 -9 -71 -24 -30 -45 -33 -71 -9 -53 48 22 125 80 80z"
        ></path>
        <path
            d="M3160 3620 c-15 -16 -33 -43 -40 -59 -10 -26 -10 -35 7 -63 12 -22 28 -34 45 -36 16 -2 28 -11 31 -23 3 -10 9 -19 14 -19 5 0 37 32 72 70 52 59 61 73 51 85 -10 12 -16 13 -26 4 -10 -8 -14 -8 -15 0 -1 6 -2 16 -3 22 -2 19 -50 49 -79 49 -19 0 -38 -10 -57 -30z m98 -32 c19 -19 14 -45 -16 -79 -28 -31 -29 -31 -54 -15 -36 24 -39 38 -17 75 20 33 63 43 87 19z"
        ></path>
        <path
            d="M1260 3626 c-9 -12 -7 -25 9 -62 12 -26 19 -49 17 -52 -3 -2 -24 11 -48 31 -68 55 -89 30 -43 -50 31 -51 23 -54 -34 -12 -43 31 -71 33 -71 4 0 -8 10 -19 23 -24 12 -5 49 -25 82 -45 33 -19 63 -32 67 -28 5 5 -3 34 -17 65 -13 31 -20 57 -15 57 6 0 27 -16 46 -36 35 -34 73 -42 65 -13 -2 8 -13 51 -25 96 -21 82 -32 96 -56 69z"
        ></path>
        <path
            d="M3304 3477 c-52 -60 -60 -74 -50 -89 10 -17 16 -13 61 38 44 48 53 55 76 49 41 -10 45 12 9 45 -18 17 -33 30 -34 29 0 0 -29 -33 -62 -72z"
        ></path>
        <path
            d="M1039 3443 c-68 -27 -80 -103 -24 -152 20 -17 41 -31 48 -32 58 -5 101 22 111 72 7 38 -24 90 -67 111 -29 14 -37 14 -68 1z m55 -36 c11 -11 7 -19 -25 -45 -45 -38 -49 -39 -49 -8 0 15 11 33 26 45 31 25 32 25 48 8z m47 -60 c-7 -19 -20 -38 -29 -41 -9 -3 -23 -9 -29 -12 -7 -3 -13 -1 -13 5 0 14 71 93 77 87 3 -3 0 -20 -6 -39z"
        ></path>
        <path
            d="M860 3354 c-11 -12 -10 -18 3 -32 16 -15 18 -15 34 0 13 14 14 20 3 32 -7 9 -16 16 -20 16 -4 0 -13 -7 -20 -16z"
        ></path>
        <path
            d="M916 3314 c-12 -8 -16 -17 -10 -22 45 -39 144 -112 152 -112 5 0 12 6 15 14 4 9 -16 33 -51 63 -89 76 -85 73 -106 57z"
        ></path>
        <path
            d="M3502 3267 c-63 -52 -71 -62 -59 -75 13 -12 22 -8 70 29 32 25 51 46 45 50 -7 4 -7 9 0 13 6 3 12 2 14 -3 1 -5 11 -4 20 3 17 12 17 14 0 28 -16 14 -23 10 -90 -45z"
        ></path>
        <path
            d="M821 3297 c-13 -24 -10 -29 34 -89 27 -34 55 -69 63 -75 25 -20 9 -23 -44 -9 -119 34 -133 35 -149 12 -8 -11 -15 -23 -15 -27 0 -3 28 -10 63 -13 34 -4 93 -14 130 -22 122 -25 121 -21 -55 230 -13 17 -14 17 -27 -7z"
        ></path>
        <path
            d="M3543 3224 c-40 -31 -73 -60 -73 -65 0 -24 33 -17 76 15 51 39 63 43 82 24 23 -23 12 -45 -43 -82 -47 -33 -53 -41 -44 -57 11 -22 12 -22 87 35 75 56 82 78 37 127 -19 22 -35 44 -35 49 0 18 -14 11 -87 -46z"
        ></path>
        <path
            d="M687 2935 c-5 -12 -11 -13 -31 -4 -14 7 -32 9 -40 6 -24 -10 -19 -36 9 -49 14 -6 25 -17 25 -24 0 -19 17 -26 36 -16 12 7 34 2 75 -16 57 -24 89 -25 89 0 0 12 -92 58 -117 58 -6 0 -13 12 -15 27 -3 30 -23 42 -31 18z"
        ></path>
        <path
            d="M659 2822 c-31 -4 -54 -42 -62 -103 l-6 -47 37 -7 c20 -3 61 -14 90 -23 46 -14 55 -14 63 -2 14 24 12 26 -46 39 -69 16 -105 42 -89 68 16 26 53 27 107 4 46 -20 47 -20 57 -1 13 25 13 27 -7 33 -10 3 -40 14 -68 24 -27 10 -62 17 -76 15z"
        ></path>
        <path
            d="M3789 2794 c-8 -10 -18 -35 -24 -58 -8 -32 -15 -42 -34 -44 -35 -5 -47 12 -27 42 20 31 20 46 2 46 -44 0 -61 -75 -26 -110 44 -44 130 -8 130 55 0 25 5 35 21 40 29 10 44 -7 30 -34 -8 -13 -8 -27 -3 -37 8 -14 12 -14 31 7 25 27 27 56 5 87 -19 27 -84 31 -105 6z"
        ></path>
        <path
            d="M580 2631 c0 -12 10 -21 28 -25 101 -25 102 -26 102 -55 0 -35 -14 -41 -71 -30 -70 13 -79 12 -79 -15 0 -20 6 -24 46 -30 110 -15 145 1 150 67 1 17 4 41 6 52 2 16 -4 21 -37 26 -22 3 -53 11 -68 18 -44 17 -77 14 -77 -8z"
        ></path>
        <path
            d="M3775 2628 c-59 -21 -84 -63 -65 -112 12 -33 57 -63 72 -48 7 7 3 18 -16 37 -32 32 -33 59 -4 79 31 22 61 20 84 -5 15 -16 16 -24 6 -39 -14 -23 -16 -60 -3 -60 27 0 57 58 49 96 -3 19 -63 65 -82 63 -6 0 -24 -5 -41 -11z"
        ></path>
        <path
            d="M3850 2463 c-63 -13 -119 -29 -125 -34 -20 -19 11 -26 71 -16 70 12 94 6 94 -22 0 -26 -25 -39 -94 -47 -46 -6 -56 -10 -56 -25 0 -11 3 -19 8 -19 31 0 160 34 173 46 17 15 15 47 -3 70 -5 8 2 13 22 18 31 6 50 31 34 45 -5 5 -61 -3 -124 -16z"
        ></path>
        <path
            d="M590 2435 c-7 -8 -18 -15 -25 -15 -29 0 -34 -82 -8 -120 24 -35 33 -40 81 -40 77 0 126 76 92 141 -23 42 -114 65 -140 34z m88 -41 c26 -18 28 -50 5 -76 -33 -37 -103 -11 -103 38 0 24 33 54 60 54 9 0 26 -7 38 -16z"
        ></path>
        <path
            d="M3814 2290 c-27 -10 -64 -57 -64 -79 0 -10 14 -30 31 -47 24 -23 39 -29 75 -29 39 0 50 5 75 33 37 41 37 66 0 103 -31 30 -73 37 -117 19z m100 -56 c9 -23 -4 -41 -35 -54 -55 -23 -109 21 -74 60 29 32 96 28 109 -6z"
        ></path>
        <path
            d="M3814 2098 c-47 -22 -56 -86 -19 -123 19 -20 34 -25 73 -25 67 0 102 27 102 80 0 30 -6 43 -26 59 -29 23 -93 27 -130 9z m94 -34 c26 -18 28 -41 5 -66 -21 -23 -55 -23 -83 0 -27 22 -20 58 13 72 32 13 40 12 65 -6z"
        ></path>
        <path
            d="M2157 3503 c-10 -21 -43 -83 -75 -138 -121 -208 -176 -302 -202 -350 l-28 -50 -321 0 c-176 0 -321 -4 -321 -8 0 -5 12 -29 27 -55 35 -62 217 -374 254 -435 34 -57 35 -69 10 -105 -10 -15 -47 -76 -83 -137 -147 -251 -208 -362 -208 -377 0 -15 28 -16 318 -14 299 2 352 -2 352 -24 0 -9 46 -88 123 -215 39 -65 136 -232 154 -267 8 -16 19 -28 24 -28 14 0 45 34 72 81 45 80 194 333 230 394 l36 60 293 -2 c161 -1 307 0 325 3 l32 5 -23 42 c-75 134 -157 276 -175 299 -12 14 -21 29 -21 33 0 4 -22 45 -50 92 -27 47 -50 87 -50 90 0 5 77 136 125 213 12 19 38 65 58 101 20 36 57 99 82 139 73 119 96 110 -275 110 -296 0 -321 1 -327 18 -4 9 -28 51 -53 92 -26 41 -60 100 -77 130 -17 30 -56 100 -88 155 -32 55 -68 119 -79 142 -12 23 -26 42 -32 43 -6 0 -18 -17 -27 -37z m43 -95 c0 -6 31 -63 69 -127 97 -164 181 -310 181 -316 0 -3 -121 -5 -270 -5 -245 1 -292 5 -260 25 10 6 30 38 167 273 45 79 83 147 83 153 0 5 7 9 15 9 8 0 15 -5 15 -12z m-411 -545 c-18 -32 -53 -94 -79 -138 -26 -44 -68 -117 -94 -162 -26 -46 -51 -83 -56 -83 -8 0 -32 39 -193 313 l-75 127 265 0 264 0 -32 -57z m726 -4 c19 -33 35 -63 35 -65 0 -3 9 -19 20 -34 11 -16 64 -104 116 -197 77 -134 94 -170 85 -183 -6 -8 -17 -26 -23 -40 -7 -14 -53 -95 -104 -180 -50 -85 -107 -182 -126 -215 -19 -33 -37 -59 -41 -57 -4 1 -138 2 -297 2 l-290 0 -9 23 c-5 12 -38 72 -74 132 -68 113 -123 206 -183 309 l-34 59 23 36 c23 34 50 81 150 256 21 39 55 93 73 122 19 28 34 55 34 60 0 30 28 33 317 33 l292 0 36 -61z m575 57 c0 -3 -28 -51 -63 -108 -103 -169 -163 -270 -186 -317 l-22 -43 -53 88 c-29 49 -63 109 -76 134 -13 25 -50 88 -82 142 -32 53 -58 99 -58 102 0 3 122 6 270 6 149 0 270 -2 270 -4z m-1509 -598 c9 -18 29 -55 46 -83 17 -27 56 -95 88 -150 32 -55 71 -121 87 -146 15 -25 28 -48 28 -50 0 -2 -120 -3 -268 -2 -156 1 -266 6 -265 11 1 5 46 85 101 178 54 93 111 193 127 222 15 28 31 52 35 52 3 0 13 -15 21 -32z m1286 -65 c25 -43 71 -123 102 -178 31 -55 69 -118 84 -140 15 -22 27 -42 27 -45 0 -3 -119 -5 -265 -5 -146 0 -265 2 -265 3 0 2 26 47 58 100 33 54 92 154 132 225 40 70 75 125 77 123 3 -2 25 -40 50 -83z m-422 -425 c3 -4 -240 -417 -253 -430 -8 -8 -14 -4 -22 17 -6 15 -26 53 -44 84 -158 265 -196 330 -196 333 0 4 512 0 515 -4z"
        ></path>
        <path
            d="M1953 2746 c-69 -14 -73 -16 -77 -43 -2 -13 -13 -19 -39 -21 l-37 -3 0 -265 0 -266 28 6 c15 3 78 10 141 17 89 8 127 8 173 -1 48 -11 63 -10 83 0 19 10 51 10 167 1 78 -7 147 -15 151 -18 22 -14 27 39 26 275 l-1 252 -37 6 c-25 4 -40 13 -47 27 -7 18 -23 24 -89 34 -95 15 -179 2 -196 -30 -10 -18 -11 -18 -33 2 -19 17 -119 45 -146 40 -3 -1 -33 -6 -67 -13z m173 -45 c22 -13 33 -30 38 -53 9 -50 6 -327 -4 -333 -4 -3 -10 -1 -12 5 -7 23 -140 32 -208 14 -13 -3 -15 21 -13 184 3 215 -6 199 108 201 43 1 69 -5 91 -18z m284 10 l25 -7 3 -187 2 -187 -32 8 c-72 16 -173 5 -200 -21 -11 -11 -13 16 -10 157 1 94 4 180 7 191 10 46 119 70 205 46z m129 -292 l-3 -229 -45 0 c-25 0 -92 5 -149 12 -84 10 -105 9 -112 -1 -5 -10 -20 -11 -51 -6 -24 4 -70 8 -102 8 -31 1 -57 5 -57 8 0 11 60 19 87 13 16 -4 28 -2 34 7 7 11 9 10 9 -3 0 -14 9 -18 39 -18 22 0 42 4 45 9 6 9 20 9 181 -4 l100 -8 2 224 c1 123 2 225 2 227 1 2 6 0 12 -3 7 -5 9 -83 8 -236z m-689 84 c-1 -82 -1 -181 0 -222 l0 -73 80 7 c50 4 80 3 80 -3 0 -10 -78 -22 -142 -22 l-38 0 0 214 c0 194 3 246 17 246 2 0 3 -66 3 -147z m42 -25 c0 -90 -5 -174 -10 -188 -8 -19 -11 22 -11 161 -1 166 3 209 17 195 2 -3 4 -78 4 -168z m598 -19 c0 -117 -3 -178 -10 -174 -6 4 -10 75 -10 181 0 109 4 174 10 174 6 0 10 -67 10 -181z m-350 -174 c11 -10 20 -21 20 -24 0 -3 -44 -7 -98 -8 -54 0 -115 -6 -135 -11 -22 -6 -37 -7 -37 -1 0 5 5 9 10 9 6 0 10 9 10 20 0 12 8 21 23 25 88 19 180 15 207 -10z m313 -7 c28 -33 21 -39 -35 -32 -29 4 -92 8 -140 8 l-87 1 21 22 c27 29 47 32 143 27 65 -4 83 -9 98 -26z"
        ></path>
        <path
            d="M1666 1488 c-18 -25 -21 -70 -6 -97 5 -10 23 -24 40 -31 18 -8 30 -20 30 -31 0 -11 0 -22 1 -26 0 -4 -9 -11 -21 -15 -15 -6 -22 -3 -27 10 -12 33 -43 38 -43 6 0 -20 45 -64 65 -64 9 0 27 11 40 25 47 47 25 124 -40 141 -18 4 -25 13 -25 29 0 33 16 39 40 15 28 -28 53 -27 45 3 -8 28 -42 57 -66 57 -10 0 -25 -10 -33 -22z"
        ></path>
        <path
            d="M1933 1502 c-22 -3 -23 -6 -23 -128 l0 -124 46 0 c25 0 54 5 65 10 29 16 49 64 49 117 0 85 -58 137 -137 125z m71 -63 c21 -16 26 -29 26 -62 0 -23 -4 -47 -8 -54 -9 -14 -62 -36 -70 -29 -2 3 -5 41 -6 85 -1 90 8 100 58 60z"
        ></path>
        <path
            d="M2351 1488 c-29 -31 -36 -58 -18 -75 13 -14 16 -13 22 8 12 39 25 50 46 38 32 -17 22 -52 -32 -114 -32 -36 -49 -65 -47 -78 3 -17 11 -20 68 -20 59 -1 65 1 68 21 3 20 -1 22 -37 22 -23 0 -41 3 -41 7 0 4 13 21 29 38 41 44 53 87 36 129 -21 51 -61 61 -94 24z"
        ></path>
        <path
            d="M2500 1492 c-18 -15 -22 -30 -26 -95 -5 -92 11 -143 49 -152 30 -8 67 10 67 31 0 11 12 14 60 12 55 -2 60 -4 60 -25 0 -32 17 -29 35 7 18 34 20 60 4 60 -6 0 -10 30 -9 83 2 105 3 99 -18 88 -15 -8 -81 -127 -96 -173 -13 -41 -21 -13 -18 56 4 69 2 77 -21 100 -31 30 -56 33 -87 8z m70 -118 c0 -64 -2 -73 -20 -79 -33 -11 -40 3 -40 80 0 60 3 76 17 84 31 17 43 -6 43 -85z m136 -40 c-6 -16 -46 -19 -46 -4 0 6 10 30 23 53 l22 42 3 -39 c2 -21 1 -44 -2 -52z"
        ></path>
        <path
            d="M2809 1491 c-19 -15 -24 -30 -27 -84 -6 -90 4 -134 33 -153 58 -38 105 15 105 119 0 71 -16 116 -47 128 -33 12 -37 12 -64 -10z m65 -53 c15 -56 -1 -158 -24 -158 -19 0 -32 34 -32 82 1 100 0 98 26 98 16 0 26 -7 30 -22z"
        ></path>
        <path
            d="M1523 1374 l2 -127 55 0 c35 0 55 4 54 12 -1 6 -2 16 -2 21 -1 6 -18 10 -37 10 -32 0 -35 2 -35 30 0 30 2 31 55 34 35 2 23 31 -15 36 -31 4 -35 9 -38 39 -3 34 -3 34 31 28 26 -4 37 -2 41 10 10 26 -3 33 -59 33 l-55 0 3 -126z"
        ></path>
        <path
            d="M1782 1478 c2 -16 9 -22 22 -20 18 3 19 -2 14 -95 -6 -105 -4 -123 17 -123 20 0 23 17 19 123 -3 91 -2 97 16 97 13 0 20 7 20 20 0 18 -7 20 -56 20 -52 0 -55 -1 -52 -22z"
        ></path>
        <path
            d="M1608 1153 c-1 -4 -2 -63 0 -131 3 -109 5 -123 20 -120 14 3 18 17 20 81 2 66 5 77 20 77 32 0 42 -22 42 -92 0 -54 3 -68 15 -68 12 0 15 16 15 85 0 71 -3 88 -19 104 -16 16 -26 18 -49 11 -29 -8 -30 -7 -28 23 1 22 -4 32 -16 35 -9 2 -18 -1 -20 -5z"
        ></path>
        <path
            d="M2197 1153 c-2 -5 -1 -63 1 -130 3 -97 7 -123 18 -123 16 0 17 5 14 82 -1 49 1 58 20 68 34 18 45 -2 45 -78 0 -53 3 -67 15 -67 11 0 16 14 18 55 6 101 -30 166 -78 140 -18 -10 -20 -8 -20 25 0 24 -5 35 -14 35 -8 0 -17 -3 -19 -7z"
        ></path>
        <path
            d="M2344 1149 c-3 -6 0 -17 7 -25 18 -17 44 -2 36 20 -7 18 -33 21 -43 5z"
        ></path>
        <path
            d="M2490 1031 l0 -129 48 5 c66 6 69 8 92 45 24 40 27 116 5 158 -16 30 -62 50 -117 50 l-28 0 0 -129z m103 62 c23 -21 23 -99 0 -125 -9 -10 -29 -18 -45 -18 l-28 0 0 86 0 86 28 -7 c15 -3 35 -14 45 -22z"
        ></path>
        <path
            d="M1822 1102 c-28 -4 -62 -57 -62 -95 0 -48 28 -95 60 -102 55 -12 93 28 92 96 -1 63 -42 109 -90 101z m42 -55 c23 -17 19 -85 -6 -101 -42 -26 -84 43 -54 88 18 29 34 32 60 13z"
        ></path>
        <path
            d="M1980 1100 c-8 -5 -23 -7 -32 -4 -16 5 -18 -4 -18 -96 0 -91 2 -101 18 -98 14 3 18 16 20 72 2 43 8 74 17 83 8 8 15 23 15 34 0 22 0 22 -20 9z"
        ></path>
        <path
            d="M2072 1102 c-30 -5 -62 -57 -62 -102 0 -19 9 -50 21 -69 18 -29 23 -32 52 -27 46 9 50 9 70 1 15 -7 17 2 17 95 l0 102 -26 -6 c-14 -4 -31 -3 -37 2 -7 4 -22 6 -35 4z m39 -52 c27 -15 27 -85 -1 -100 -45 -24 -84 40 -54 88 16 25 26 27 55 12z"
        ></path>
        <path
            d="M2703 1091 c-13 -11 -23 -26 -23 -35 0 -8 -4 -17 -9 -20 -14 -9 7 -107 26 -121 17 -13 115 -13 121 -1 1 3 2 47 2 96 0 71 -3 90 -14 90 -8 0 -17 -6 -20 -12 -3 -9 -8 -8 -16 5 -14 22 -39 21 -67 -2z m71 -47 c25 -25 20 -71 -9 -90 -24 -16 -27 -16 -45 1 -35 32 -17 105 25 105 7 0 21 -7 29 -16z"
        ></path>
        <path
            d="M2890 1100 c-8 -5 -23 -7 -32 -4 -16 5 -18 -4 -18 -95 0 -83 3 -101 15 -101 16 0 18 13 15 92 -1 42 1 49 24 60 14 6 29 8 34 4 4 -4 8 -40 9 -79 1 -52 5 -72 15 -72 10 0 13 21 13 84 -1 75 -3 85 -24 102 -26 22 -30 22 -51 9z"
        ></path>
        <path
            d="M3027 1090 c-39 -31 -52 -91 -31 -136 21 -45 54 -62 89 -46 30 14 34 -1 9 -29 -16 -17 -18 -17 -55 1 -47 25 -49 25 -49 0 0 -20 52 -60 79 -60 7 0 28 15 47 34 l34 34 0 106 0 105 -27 -1 c-16 -1 -37 1 -49 5 -14 5 -29 1 -47 -13z m65 -47 c21 -19 24 -62 5 -87 -12 -17 -17 -17 -43 -5 -35 17 -44 61 -18 90 21 23 32 24 56 2z"
        ></path>
        <path
            d="M2350 999 c0 -90 2 -100 18 -97 14 3 17 17 20 101 3 92 2 97 -18 97 -19 0 -20 -6 -20 -101z"
        ></path>
        <path
            d="M2624 748 c-5 -7 -7 -64 -5 -125 2 -77 -1 -113 -8 -113 -7 0 -11 31 -11 88 l0 88 -59 -1 c-66 0 -62 2 -85 -42 -21 -41 -20 -70 2 -112 23 -42 51 -54 86 -36 15 8 28 10 31 4 4 -5 24 -9 46 -9 l39 0 0 124 c0 94 -3 126 -14 135 -11 9 -16 9 -22 -1z m-70 -120 c21 -29 20 -57 -1 -80 -20 -22 -37 -23 -57 -2 -21 20 -20 63 1 86 21 24 39 23 57 -4z"
        ></path>
        <path
            d="M1920 638 c0 -122 6 -161 24 -155 6 2 13 42 17 98 4 66 8 87 13 71 27 -75 77 -162 93 -162 16 0 18 13 20 130 2 127 2 130 -19 130 -20 0 -21 -3 -15 -90 3 -49 4 -90 1 -90 -6 0 -74 141 -74 155 0 11 -29 24 -52 25 -5 0 -8 -51 -8 -112z"
        ></path>
        <path
            d="M2131 664 c-39 -50 -20 -164 30 -177 26 -7 74 15 83 39 11 28 -5 35 -31 14 -23 -18 -29 -19 -47 -7 -40 27 -31 37 33 37 58 0 61 1 61 24 0 28 -23 75 -42 87 -27 17 -66 9 -87 -17z m82 -36 c8 -29 6 -30 -43 -26 l-41 3 21 23 c27 28 56 29 63 0z"
        ></path>
        <path
            d="M2271 563 c0 -118 0 -123 20 -123 16 0 20 6 19 28 -3 42 -2 44 24 27 13 -8 30 -13 39 -9 45 17 66 110 37 169 -14 28 -19 30 -76 31 l-62 1 -1 -124z m99 77 c42 -22 27 -110 -20 -110 -21 0 -50 35 -50 60 0 20 28 60 41 60 6 0 19 -4 29 -10z"
        ></path>
    </g>
</svg>
